<?xml version="1.0" standalone="no"?>
<!DOCTYPE svg PUBLIC "-//W3C//DTD SVG 20010904//EN"
 "http://www.w3.org/TR/2001/REC-SVG-20010904/DTD/svg10.dtd">
<svg version="1.0" xmlns="http://www.w3.org/2000/svg"
 width="512.000000pt" height="512.000000pt" viewBox="0 0 512.000000 512.000000"
 preserveAspectRatio="xMidYMid meet">

<g transform="translate(0.000000,512.000000) scale(0.100000,-0.100000)"
fill="#495057" stroke="none">
<path d="M3739 4027 c-64 -34 -102 -93 -107 -166 -8 -106 -4 -111 281 -398
l261 -263 -1895 0 -1895 0 -53 -26 c-90 -45 -134 -140 -110 -238 16 -67 85
-138 151 -154 63 -16 4292 -17 4366 -2 136 30 210 193 139 311 -38 65 -903
924 -949 944 -56 23 -136 19 -189 -8z"/>
<path d="M367 2337 c-128 -40 -191 -196 -124 -308 14 -24 227 -245 474 -490
489 -487 473 -475 584 -467 142 10 230 160 174 296 -11 24 -105 126 -273 295
l-256 257 1895 0 1895 0 53 26 c127 64 155 219 59 328 -72 83 126 76 -2292 75
-1616 0 -2160 -3 -2189 -12z"/>
</g>
</svg>
