<?xml version="1.0" standalone="no"?>
<!DOCTYPE svg PUBLIC "-//W3C//DTD SVG 20010904//EN"
 "http://www.w3.org/TR/2001/REC-SVG-20010904/DTD/svg10.dtd">
<svg version="1.0" xmlns="http://www.w3.org/2000/svg"
 width="512.000000pt" height="512.000000pt" viewBox="0 0 512.000000 512.000000"
 preserveAspectRatio="xMidYMid meet">

<g transform="translate(0.000000,512.000000) scale(0.100000,-0.100000)"
fill="#495057" stroke="none">
<path d="M361 5104 c-169 -45 -301 -180 -346 -351 -23 -87 -23 -4299 0 -4386
45 -173 178 -307 350 -352 52 -13 309 -15 2195 -15 2330 0 2184 -4 2302 56 71
36 159 123 197 193 64 120 61 58 61 1351 0 1293 3 1231 -61 1351 -38 70 -126
157 -197 193 -112 57 -102 56 -914 56 l-748 0 0 748 c0 631 -2 757 -15 805
-45 173 -178 307 -350 352 -86 22 -2391 22 -2474 -1z m449 -448 c0 -132 2
-146 23 -176 12 -18 35 -43 50 -54 28 -21 34 -21 717 -21 683 0 689 0 717 21
15 11 38 36 51 54 20 30 22 44 22 177 l0 144 194 -3 c213 -3 221 -5 270 -72
l21 -27 0 -2139 0 -2139 -21 -27 c-11 -15 -33 -37 -48 -48 -27 -21 -31 -21
-1206 -21 -1175 0 -1179 0 -1206 21 -15 11 -37 33 -48 48 l-21 27 -3 2112 c-1
1162 0 2126 3 2144 7 40 49 91 90 109 21 9 83 13 213 14 l182 0 0 -144z m1260
104 l0 -40 -470 0 -470 0 0 40 0 40 470 0 470 0 0 -40z m2656 -1906 c67 -49
69 -57 72 -270 l3 -194 -144 0 c-133 0 -147 -2 -177 -22 -18 -13 -43 -36 -54
-51 -21 -28 -21 -34 -21 -717 0 -683 0 -689 21 -717 11 -15 36 -38 54 -50 30
-21 44 -23 177 -23 l144 0 -3 -194 c-3 -213 -5 -221 -72 -270 -27 -21 -38 -21
-792 -24 l-764 -2 13 27 c9 22 13 315 15 1281 l2 1252 749 -2 c739 -3 750 -3
777 -24z m74 -1254 l0 -470 -40 0 -40 0 0 470 0 470 40 0 40 0 0 -470z"/>
<path d="M3391 4828 c-60 -31 -83 -66 -89 -130 -3 -44 0 -59 20 -88 35 -52 83
-80 137 -80 201 -1 414 -88 558 -228 129 -126 205 -275 238 -466 l6 -39 -51
44 c-76 65 -105 81 -152 81 -58 0 -89 -14 -125 -55 -38 -43 -49 -98 -31 -152
11 -33 45 -68 208 -208 107 -93 215 -182 239 -198 54 -35 119 -39 168 -10 35
22 372 411 397 459 23 45 20 99 -9 147 -28 49 -75 75 -135 75 -55 0 -89 -19
-143 -82 l-45 -52 -7 55 c-29 214 -148 448 -311 612 -202 203 -446 314 -735
332 -86 6 -98 5 -138 -17z"/>
</g>
</svg>
